<?xml version="1.0" encoding="UTF-8" standalone="no"?>
<svg width="800" height ="600" version="1.1"
xmlns:svg ="http://www.w3.org/2000/svg"
xmlns:rdf="http://www.w3.org/1999/02/22-rdf-syntax-ns#"
xmlns:cc="http://web.resource.org/cc/"
xmlns:dc="http://purl.org/dc/elements/1.1/"
xmlns ="http://www.w3.org/2000/svg"
>
<!-- SVG plot written using Boost.Plot program (Creator Jacob Voytko) --> 
<!-- Use, modification and distribution of Boost.Plot subject to the --> 
<!-- Boost Software License, Version 1.0.--> 
<!-- (See accompanying file LICENSE_1_0.txt --> 
<!-- or copy at http://www.boost.org/LICENSE_1_0.txt) --> 

<!-- SVG Plot Copyright Julia Boike
Alfred-Wegener-Institut  --> 
<meta name="copyright" content="Julia Boike
Alfred-Wegener-Institut" />
<meta name="date" content="" />
<!-- Histogram of the interpolation sigma for data set: ALS1_all_echotypes_SOR_terrainprob --> 
<desc>Histogram of the interpolation sigma for data set: ALS1_all_echotypes_SOR_terrainprob</desc>
<clipPath id="plot_window"><rect x="93.6" y="54" width="679" height="486"/></clipPath>
<g id="imageBackground" stroke="rgb(0,0,0)" fill="rgb(255,255,255)" stroke-width="2"><rect x="0" y="0" width="800" height="600"/></g>
<g id="plotBackground" stroke="rgb(119,136,153)" fill="rgb(255,255,255)" stroke-width="2"><rect x="92.6" y="53" width="681" height="488"/></g>
<g id="yMinorGrid" stroke="rgb(200,220,255)" stroke-width="0.5"></g>
<g id="yMajorGrid" stroke="rgb(200,220,255)" stroke-width="1"></g>
<g id="xMinorGrid" stroke="rgb(200,220,255)" stroke-width="0.5"></g>
<g id="xMajorGrid" stroke="rgb(200,220,255)" stroke-width="1"></g>
<g id="yMinorTicks" stroke="rgb(0,0,0)" stroke-width="1"><path d="M90.6,541 L92.6,541 " fill="none"/></g>
<g id="xMinorTicks" stroke="rgb(0,0,0)" stroke-width="1"></g>
<g id="yMajorTicks" stroke="rgb(0,0,0)" stroke-width="2"><path d="M87.6,541 L92.6,541 M87.6,460 L92.6,460 M87.6,378 L92.6,378 M87.6,297 L92.6,297 M87.6,216 L92.6,216 M87.6,134 L92.6,134 M87.6,53 L92.6,53 M87.6,541 L92.6,541 " fill="none"/></g>
<g id="xMajorTicks" stroke="rgb(0,0,0)" stroke-width="2"><path d="M92.6,541 L92.6,546 M206,541 L206,546 M320,541 L320,546 M433,541 L433,546 M547,541 L547,546 M660,541 L660,546 M774,541 L774,546 " fill="none"/></g>
<g id="xTicksValues">
<text x="92.6" y="562" text-anchor="middle" font-size="12" font-family="Lucida Sans Unicode">0</text>
<text x="206" y="562" text-anchor="middle" font-size="12" font-family="Lucida Sans Unicode">0.1</text>
<text x="320" y="562" text-anchor="middle" font-size="12" font-family="Lucida Sans Unicode">0.2</text>
<text x="433" y="562" text-anchor="middle" font-size="12" font-family="Lucida Sans Unicode">0.3</text>
<text x="547" y="562" text-anchor="middle" font-size="12" font-family="Lucida Sans Unicode">0.4</text>
<text x="660" y="562" text-anchor="middle" font-size="12" font-family="Lucida Sans Unicode">0.5</text>
<text x="774" y="562" text-anchor="middle" font-size="12" font-family="Lucida Sans Unicode">0.6</text></g>
<g id="yTicksValues">
<text x="81.6" y="543" text-anchor="end" font-size="12" font-family="Lucida Sans Unicode">0</text>
<text x="81.6" y="462" text-anchor="end" font-size="12" font-family="Lucida Sans Unicode">2.5</text>
<text x="81.6" y="381" text-anchor="end" font-size="12" font-family="Lucida Sans Unicode">5</text>
<text x="81.6" y="299" text-anchor="end" font-size="12" font-family="Lucida Sans Unicode">7.5</text>
<text x="81.6" y="218" text-anchor="end" font-size="12" font-family="Lucida Sans Unicode">10</text>
<text x="81.6" y="137" text-anchor="end" font-size="12" font-family="Lucida Sans Unicode">12.5</text>
<text x="81.6" y="55.4" text-anchor="end" font-size="12" font-family="Lucida Sans Unicode">15</text>
<text x="81.6" y="543" text-anchor="end" font-size="12" font-family="Lucida Sans Unicode">0</text></g>
<g id="yLabel">
<text x="42.9" y="297" text-anchor="middle" transform = "rotate(-90 42.9 297 )" font-size="14" font-family="Lucida Sans Unicode">density of interpolation sigma [%]</text></g>
<g id="xLabel">
<text x="433" y="577" text-anchor="middle" font-size="14" font-family="Lucida Sans Unicode">interpolation sigma</text></g>
<g id="plotPoints" clip-path="url(#plot_window)"><g stroke="rgb(139,0,0)" fill="rgb(255,160,122)" stroke-width="2"><path d="M92.6,541 L92.6,237 L121,237 L121,541 Z" fill="rgb(255,160,122)"/><path d="M121,541 L121,443 L149,443 L149,541 ZM149,541 L149,353 L178,353 L178,541 ZM178,541 L178,236 L206,236 L206,541 ZM206,541 L206,189 L235,189 L235,541 ZM235,541 L235,106 L263,106 L263,541 ZM263,541 L263,95 L291,95 L291,541 ZM291,541 L291,152 L320,152 L320,541 ZM320,541 L320,251 L348,251 L348,541 ZM348,541 L348,354 L377,354 L377,541 ZM377,541 L377,438 L405,438 L405,541 ZM405,541 L405,493 L433,493 L433,541 ZM433,541 L433,522 L462,522 L462,541 ZM462,541 L462,534 L490,534 L490,541 ZM490,541 L490,538 L518,538 L518,541 ZM518,541 L518,540 L547,540 L547,541 ZM547,541 L547,540 L575,540 L575,541 ZM575,541 L575,540 L604,540 L604,541 ZM604,541 L604,540 L632,540 L632,541 ZM632,541 L632,540 L660,540 L660,541 Z" fill="rgb(173,216,230)"/><path d="M660,541 L660,463 L689,463 L689,541 Z" fill="rgb(255,160,122)"/></g>
</g>
<g id="title">
<text x="400" y="36" text-anchor="middle" font-size="18" font-family="Lucida Sans Unicode">Robust Interpolation Histogram: ALS1_all_echotypes_SOR_terrainprob</text></g>
<g id="plotXValues"></g>
<g id="plotYValues"></g>
<g fill="rgb(0,0,0)">
<text x="576" y="72" font-size="12" font-family="Verdana">#Data: 5682351</text></g>
<g fill="rgb(0,0,0)">
<text x="576" y="87" font-size="12" font-family="Verdana">#Used: 5125490</text></g>
<g fill="rgb(0,0,0)">
<text x="576" y="102" font-size="12" font-family="Verdana">Min: 0.000</text></g>
<g fill="rgb(0,0,0)">
<text x="576" y="117" font-size="12" font-family="Verdana">Max: 0.000</text></g>
<g fill="rgb(0,0,0)">
<text x="576" y="132" font-size="12" font-family="Verdana">Mean: 0.000</text></g>
<g fill="rgb(0,0,0)">
<text x="576" y="147" font-size="12" font-family="Verdana">Median: 0.000</text></g>
<g fill="rgb(0,0,0)">
<text x="576" y="162" font-size="12" font-family="Verdana">Mode: 0.000</text></g>
<g fill="rgb(0,0,0)">
<text x="576" y="177" font-size="12" font-family="Verdana">StdDev: 0.000</text></g>
<g fill="rgb(0,0,0)">
<text x="576" y="192" font-size="12" font-family="Verdana">StdDevMAD: 0.000</text></g>
<g fill="rgb(0,0,0)">
<text x="576" y="207" font-size="12" font-family="Verdana">Rms: 0.000</text></g>
<g fill="rgb(0,0,0)">
<text x="576" y="222" font-size="12" font-family="Verdana">Skewness: 0.000</text></g>
<g fill="rgb(0,0,0)">
<text x="576" y="237" font-size="12" font-family="Verdana">CalcMode: rational</text></g>
</svg>
