<?xml version="1.0" encoding="UTF-8" standalone="no"?>
<svg width="800" height ="600" version="1.1"
xmlns:svg ="http://www.w3.org/2000/svg"
xmlns:rdf="http://www.w3.org/1999/02/22-rdf-syntax-ns#"
xmlns:cc="http://web.resource.org/cc/"
xmlns:dc="http://purl.org/dc/elements/1.1/"
xmlns ="http://www.w3.org/2000/svg"
>
<!-- SVG plot written using Boost.Plot program (Creator Jacob Voytko) --> 
<!-- Use, modification and distribution of Boost.Plot subject to the --> 
<!-- Boost Software License, Version 1.0.--> 
<!-- (See accompanying file LICENSE_1_0.txt --> 
<!-- or copy at http://www.boost.org/LICENSE_1_0.txt) --> 

<!-- SVG Plot Copyright Julia Boike
Alfred-Wegener-Institut  --> 
<meta name="copyright" content="Julia Boike
Alfred-Wegener-Institut" />
<meta name="date" content="" />
<!-- Histogram of the interpolation sigma for data set: ALS_all_echotypes_SOR_terrainprob --> 
<desc>Histogram of the interpolation sigma for data set: ALS_all_echotypes_SOR_terrainprob</desc>
<clipPath id="plot_window"><rect x="76.8" y="54" width="696" height="486"/></clipPath>
<g id="imageBackground" stroke="rgb(0,0,0)" fill="rgb(255,255,255)" stroke-width="2"><rect x="0" y="0" width="800" height="600"/></g>
<g id="plotBackground" stroke="rgb(119,136,153)" fill="rgb(255,255,255)" stroke-width="2"><rect x="75.8" y="53" width="698" height="488"/></g>
<g id="yMinorGrid" stroke="rgb(200,220,255)" stroke-width="0.5"></g>
<g id="yMajorGrid" stroke="rgb(200,220,255)" stroke-width="1"></g>
<g id="xMinorGrid" stroke="rgb(200,220,255)" stroke-width="0.5"></g>
<g id="xMajorGrid" stroke="rgb(200,220,255)" stroke-width="1"></g>
<g id="yMinorTicks" stroke="rgb(0,0,0)" stroke-width="1"><path d="M73.8,541 L75.8,541 " fill="none"/></g>
<g id="xMinorTicks" stroke="rgb(0,0,0)" stroke-width="1"></g>
<g id="yMajorTicks" stroke="rgb(0,0,0)" stroke-width="2"><path d="M70.8,541 L75.8,541 M70.8,460 L75.8,460 M70.8,378 L75.8,378 M70.8,297 L75.8,297 M70.8,216 L75.8,216 M70.8,134 L75.8,134 M70.8,53 L75.8,53 M70.8,541 L75.8,541 " fill="none"/></g>
<g id="xMajorTicks" stroke="rgb(0,0,0)" stroke-width="2"><path d="M75.8,541 L75.8,546 M192,541 L192,546 M309,541 L309,546 M425,541 L425,546 M541,541 L541,546 M658,541 L658,546 M774,541 L774,546 " fill="none"/></g>
<g id="xTicksValues">
<text x="75.8" y="562" text-anchor="middle" font-size="12" font-family="Lucida Sans Unicode">0</text>
<text x="192" y="562" text-anchor="middle" font-size="12" font-family="Lucida Sans Unicode">0.1</text>
<text x="309" y="562" text-anchor="middle" font-size="12" font-family="Lucida Sans Unicode">0.2</text>
<text x="425" y="562" text-anchor="middle" font-size="12" font-family="Lucida Sans Unicode">0.3</text>
<text x="541" y="562" text-anchor="middle" font-size="12" font-family="Lucida Sans Unicode">0.4</text>
<text x="658" y="562" text-anchor="middle" font-size="12" font-family="Lucida Sans Unicode">0.5</text>
<text x="774" y="562" text-anchor="middle" font-size="12" font-family="Lucida Sans Unicode">0.6</text></g>
<g id="yTicksValues">
<text x="64.8" y="543" text-anchor="end" font-size="12" font-family="Lucida Sans Unicode">0</text>
<text x="64.8" y="462" text-anchor="end" font-size="12" font-family="Lucida Sans Unicode">5</text>
<text x="64.8" y="381" text-anchor="end" font-size="12" font-family="Lucida Sans Unicode">10</text>
<text x="64.8" y="299" text-anchor="end" font-size="12" font-family="Lucida Sans Unicode">15</text>
<text x="64.8" y="218" text-anchor="end" font-size="12" font-family="Lucida Sans Unicode">20</text>
<text x="64.8" y="137" text-anchor="end" font-size="12" font-family="Lucida Sans Unicode">25</text>
<text x="64.8" y="55.4" text-anchor="end" font-size="12" font-family="Lucida Sans Unicode">30</text>
<text x="64.8" y="543" text-anchor="end" font-size="12" font-family="Lucida Sans Unicode">0</text></g>
<g id="yLabel">
<text x="42.9" y="297" text-anchor="middle" transform = "rotate(-90 42.9 297 )" font-size="14" font-family="Lucida Sans Unicode">density of interpolation sigma [%]</text></g>
<g id="xLabel">
<text x="425" y="577" text-anchor="middle" font-size="14" font-family="Lucida Sans Unicode">interpolation sigma</text></g>
<g id="plotPoints" clip-path="url(#plot_window)"><g stroke="rgb(139,0,0)" fill="rgb(255,160,122)" stroke-width="2"><path d="M75.8,541 L75.8,378 L105,378 L105,541 Z" fill="rgb(255,160,122)"/><path d="M105,541 L105,167 L134,167 L134,541 ZM134,541 L134,121 L163,121 L163,541 ZM163,541 L163,353 L192,353 L192,541 ZM192,541 L192,428 L221,428 L221,541 ZM221,541 L221,460 L250,460 L250,541 ZM250,541 L250,480 L279,480 L279,541 ZM279,541 L279,492 L309,492 L309,541 ZM309,541 L309,501 L338,501 L338,541 ZM338,541 L338,508 L367,508 L367,541 ZM367,541 L367,515 L396,515 L396,541 ZM396,541 L396,521 L425,521 L425,541 ZM425,541 L425,526 L454,526 L454,541 ZM454,541 L454,530 L483,530 L483,541 ZM483,541 L483,533 L512,533 L512,541 ZM512,541 L512,536 L541,536 L541,541 ZM541,541 L541,538 L570,538 L570,541 ZM570,541 L570,539 L599,539 L599,541 ZM599,541 L599,540 L629,540 L629,541 ZM629,541 L629,540 L658,540 L658,541 Z" fill="rgb(173,216,230)"/><path d="M658,541 L658,527 L687,527 L687,541 Z" fill="rgb(255,160,122)"/></g>
</g>
<g id="title">
<text x="400" y="36" text-anchor="middle" font-size="18" font-family="Lucida Sans Unicode">Robust Interpolation Histogram: ALS_all_echotypes_SOR_terrainprob</text></g>
<g id="plotXValues"></g>
<g id="plotYValues"></g>
<g fill="rgb(0,0,0)">
<text x="576" y="72" font-size="12" font-family="Verdana">#Data: 30884922</text></g>
<g fill="rgb(0,0,0)">
<text x="576" y="87" font-size="12" font-family="Verdana">#Used: 28285796</text></g>
<g fill="rgb(0,0,0)">
<text x="576" y="102" font-size="12" font-family="Verdana">Min: 0.000</text></g>
<g fill="rgb(0,0,0)">
<text x="576" y="117" font-size="12" font-family="Verdana">Max: 0.000</text></g>
<g fill="rgb(0,0,0)">
<text x="576" y="132" font-size="12" font-family="Verdana">Mean: 0.000</text></g>
<g fill="rgb(0,0,0)">
<text x="576" y="147" font-size="12" font-family="Verdana">Median: 0.000</text></g>
<g fill="rgb(0,0,0)">
<text x="576" y="162" font-size="12" font-family="Verdana">Mode: 0.000</text></g>
<g fill="rgb(0,0,0)">
<text x="576" y="177" font-size="12" font-family="Verdana">StdDev: 0.000</text></g>
<g fill="rgb(0,0,0)">
<text x="576" y="192" font-size="12" font-family="Verdana">StdDevMAD: 0.000</text></g>
<g fill="rgb(0,0,0)">
<text x="576" y="207" font-size="12" font-family="Verdana">Rms: 0.000</text></g>
<g fill="rgb(0,0,0)">
<text x="576" y="222" font-size="12" font-family="Verdana">Skewness: 0.000</text></g>
<g fill="rgb(0,0,0)">
<text x="576" y="237" font-size="12" font-family="Verdana">CalcMode: rational</text></g>
</svg>
